<svg xmlns="http://www.w3.org/2000/svg" width="236" height="41" fill="none" viewBox="0 0 236 41">
    <path fill="url(#paint0_linear)" fill-rule="evenodd" d="M114.882 0h9.316c.965 0 1.848.533 2.284 1.377l13.413 26.027c.369.715.367 1.56-.005 2.273l-4.781 9.183c-.954 1.833-3.628 1.822-4.566-.019l-17.95-35.21c-.85-1.668.387-3.631 2.289-3.631zm28.167 13.098c3.616 0 6.548-2.933 6.548-6.55 0-3.616-2.932-6.548-6.548-6.548-3.617 0-6.549 2.932-6.549 6.549 0 3.616 2.932 6.548 6.549 6.548z" clip-rule="evenodd"/>
    <path fill="#000000" fill-rule="evenodd" d="M4.07 39.684c-.074.123-.16.239-.257.349-.391.39-.93.586-1.613.586-.685 0-1.222-.195-1.613-.586C.196 39.593 0 39.055 0 38.42V17.23c0-3.373.66-6.354 1.98-8.945C3.25 5.695 5.01 3.666 7.259 2.2 9.507.733 12.122 0 15.104 0c.137 0 .274.002.41.005.132-.003.264-.005.397-.005 2.981 0 5.596.733 7.845 2.2 2.06 1.343 3.71 3.158 4.949 5.445 1.24-2.287 2.889-4.102 4.949-5.445C35.902.733 38.517 0 41.499 0c.133 0 .265.002.397.005.136-.003.272-.005.41-.005 2.981 0 5.597.733 7.845 2.2 2.248 1.466 4.008 3.495 5.279 6.085 1.32 2.59 1.98 5.572 1.98 8.945v21.19c0 .476-.11.898-.33 1.264-.074.123-.16.239-.257.349-.391.39-.929.586-1.613.586-.684 0-1.222-.195-1.613-.586-.152-.171-.274-.357-.367-.557-.146-.316-.22-.668-.22-1.056V17.192c-.006-3.746-1.008-6.813-3.006-9.2-.335-.41-.688-.786-1.059-1.126-1.921-1.568-4.267-2.389-7.038-2.461-3.192.085-5.821 1.208-7.886 3.367-.154.16-.302.325-.444.494-.834 1.06-1.48 2.247-1.94 3.562-.462 1.449-.67 3.078-.623 4.889h-.005c.004.17.005.341.005.513v21.19c0 .635-.195 1.173-.586 1.613-.391.39-.929.586-1.613.586-.037 0-.074 0-.11-.002-.036.002-.073.002-.11.002-.684 0-1.222-.195-1.613-.586-.391-.44-.587-.978-.587-1.613V17.23c0-.172.002-.343.005-.513h-.005c.047-1.81-.16-3.44-.622-4.889-.46-1.315-1.106-2.503-1.94-3.562-.143-.169-.29-.333-.444-.494-2.065-2.16-4.694-3.282-7.886-3.367-2.771.072-5.117.893-7.038 2.46-.371.341-.725.716-1.06 1.127-1.997 2.387-3 5.454-3.006 9.2V38.42c0 .476-.11.898-.33 1.264zM77.051 38.36C80.18 40.12 83.7 41 87.61 41s7.406-.88 10.485-2.64c3.08-1.808 5.499-4.252 7.259-7.332 1.809-3.128 2.713-6.623 2.713-10.484 0-3.91-.904-7.406-2.713-10.485-1.76-3.129-4.179-5.573-7.259-7.332C95.014.918 91.52.014 87.61.014S80.18.918 77.05 2.727c-3.079 1.76-5.523 4.203-7.332 7.332-1.76 3.08-2.64 6.574-2.64 10.485 0 3.861.88 7.356 2.64 10.484 1.809 3.08 4.253 5.524 7.332 7.332zm18.77-3.592c-2.395 1.417-5.132 2.126-8.212 2.126-3.03 0-5.767-.709-8.211-2.126-2.444-1.467-4.375-3.422-5.793-5.866-1.417-2.493-2.126-5.279-2.126-8.358 0-3.129.709-5.915 2.126-8.359 1.418-2.493 3.349-4.448 5.793-5.866 2.444-1.466 5.181-2.2 8.212-2.2 3.079 0 5.816.734 8.211 2.2 2.444 1.418 4.351 3.373 5.719 5.866 1.418 2.444 2.127 5.206 2.127 8.285 0 3.129-.709 5.94-2.127 8.432-1.368 2.444-3.275 4.4-5.719 5.866zm66.994 4.839c2.786.928 5.45 1.393 7.992 1.393 2.786 0 5.376-.44 7.771-1.32 2.396-.929 4.326-2.248 5.793-3.96 1.466-1.71 2.199-3.714 2.199-6.011 0-1.76-.464-3.398-1.393-4.913-.88-1.564-2.395-2.933-4.546-4.106-2.101-1.173-4.985-2.004-8.651-2.493-2.689-.39-4.839-.904-6.452-1.54-1.614-.684-2.787-1.49-3.52-2.419-.684-.978-1.026-2.102-1.026-3.373 0-1.857.855-3.446 2.566-4.766 1.711-1.32 4.106-1.98 7.185-1.98 2.298 0 4.302.416 6.012 1.247 1.76.782 3.251 1.955 4.473 3.52.391.488.855.782 1.393.88.538.097 1.051.024 1.54-.22.635-.343 1.002-.783 1.1-1.32.146-.587.024-1.124-.367-1.613-1.418-2.004-3.275-3.593-5.572-4.766C177.014.625 174.204.014 170.88.014c-2.737 0-5.181.44-7.332 1.32-2.102.83-3.764 2.102-4.986 3.812-1.222 1.662-1.833 3.715-1.833 6.16 0 2.59 1.173 4.863 3.519 6.818 2.347 1.955 5.964 3.275 10.852 3.96 3.812.537 6.623 1.441 8.432 2.712 1.857 1.222 2.786 2.786 2.786 4.693 0 1.955-.856 3.666-2.566 5.132-1.711 1.466-4.62 2.2-8.725 2.2-2.396 0-4.62-.318-6.673-.954-2.004-.684-3.714-1.857-5.132-3.519-.342-.44-.807-.709-1.393-.806-.538-.098-1.051.024-1.54.366-.537.391-.855.88-.953 1.466-.049.538.122 1.051.513 1.54 1.858 2.2 4.18 3.764 6.966 4.693zM214.808 41c-3.91 0-7.429-.88-10.558-2.64-3.079-1.808-5.523-4.252-7.332-7.332-1.759-3.128-2.639-6.623-2.639-10.484 0-3.91.88-7.406 2.639-10.485 1.809-3.129 4.253-5.573 7.332-7.332C207.379.918 210.898.014 214.808.014c3.911 0 7.406.904 10.485 2.713 3.08 1.76 5.499 4.203 7.259 7.332 1.808 3.08 2.713 6.574 2.713 10.485V38.36c0 .636-.196 1.173-.587 1.613-.391.391-.904.587-1.54.587-.684 0-1.246-.196-1.686-.587-.329-.37-.52-.81-.572-1.318V20.28h-.016c-.039-3.021-.747-5.72-2.125-8.095-1.369-2.493-3.275-4.448-5.719-5.866-2.395-1.466-5.132-2.2-8.212-2.2-3.03 0-5.768.734-8.212 2.2-2.444 1.418-4.374 3.373-5.792 5.866-1.417 2.444-2.126 5.23-2.126 8.359 0 3.079.709 5.865 2.126 8.358 1.418 2.444 3.348 4.4 5.792 5.866 2.444 1.417 5.182 2.126 8.212 2.126 2.036 0 3.922-.31 5.658-.93.774.114 1.674.59 1.9 1.918.154.9-.115 1.534-.521 1.962-2.146.77-4.492 1.156-7.037 1.156z" clip-rule="evenodd"/>
    <defs>
        <linearGradient id="paint0_linear" x1="130.959" x2="130.959" y1="0" y2="40.228" gradientUnits="userSpaceOnUse">
            <stop offset=".285" stop-color="#696cff"/>
            <stop offset=".747" stop-color="#696cff"/>
        </linearGradient>
    </defs>
</svg>
